HIERARCHY
ROOT ui
{
	 OFFSET 0 0 0
	 CHANNELS 3 XPosition YPosition Z Position
	 EndSite
	 {
	 OFFSET 0 -1 0
	 }
}
ROOT li
{
	 OFFSET 0 0 0
	 CHANNELS 3 XPosition YPosition Z Position
	 EndSite
	 {
	 OFFSET 0 -1 0
	 }
}
ROOT ul
{
	 OFFSET 0 0 0
	 CHANNELS 3 XPosition YPosition Z Position
	 EndSite
	 {
	 OFFSET 0 -1 0
	 }
}
ROOT ll
{
	 OFFSET 0 0 0
	 CHANNELS 3 XPosition YPosition Z Position
	 EndSite
	 {
	 OFFSET 0 -1 0
	 }
}
ROOT tt
{
	 OFFSET 0 0 0
	 CHANNELS 3 XPosition YPosition Z Position
	 EndSite
	 {
	 OFFSET 0 -1 0
	 }
}
ROOT tb
{
	 OFFSET 0 0 0
	 CHANNELS 3 XPosition YPosition Z Position
	 EndSite
	 {
	 OFFSET 0 -1 0
	 }
}
ROOT td
{
	 OFFSET 0 0 0
	 CHANNELS 3 XPosition YPosition Z Position
	 EndSite
	 {
	 OFFSET 0 -1 0
	 }
}
ROOT v
{
	 OFFSET 0 0 0
	 CHANNELS 3 XPosition YPosition Z Position
	 EndSite
	 {
	 OFFSET 0 -1 0
	 }
}
ROOT bn
{
	 OFFSET 0 0 0
	 CHANNELS 3 XPosition YPosition Z Position
	 EndSite
	 {
	 OFFSET 0 -1 0
	 }
}
MOTION
Frames: 16
Frame Time: 0.002
0.060016246795654295	-0.0010144879817962646	0		0.5666644897460937	-2.49337744140625	0		-0.985406005859375	-0.029269739151000975	0		-0.552801025390625	-2.52472998046875	0		1.995263916015625	-1.1406956787109375	0		3.457045166015625	-0.75749072265625	0		4.71110986328125	-0.34975128173828124	0		5.77421728515625	0.21394821166992187	0		-0.26701528930664065	5.903412109375	0		
-0.025823740005493163	0.0022435750961303713	0		0.5637058715820312	-2.49514599609375	0		-0.932257080078125	-0.027683395385742188	0		-0.534749755859375	-2.525726806640625	0		2.0156435546875	-1.11778369140625	0		3.44500927734375	-0.769222412109375	0		4.6981943359375	-0.35250335693359375	0		5.7670263671875	0.1848590850830078	0		-0.28383209228515627	5.8958359375	0		
-0.021709590911865233	-0.0026154890060424807	0		0.562812744140625	-2.49496044921875	0		-0.9949305419921874	-0.014698227882385255	0		-0.5647640380859374	-2.535155029296875	0		1.9692572021484376	-1.0790777587890625	0		3.447432861328125	-0.74715478515625	0		4.69125048828125	-0.3613577880859375	0		5.76936669921875	0.2004163818359375	0		-0.26654400634765624	5.89182470703125	0		
-0.02743299865722656	0.0026273810863494873	0		0.5660017700195312	-2.490845458984375	0		-0.9147958374023437	-0.02148114013671875	0		-0.565625	-2.53495703125	0		1.9786109619140626	-1.065079345703125	0		3.45863671875	-0.7462241821289063	0		4.69452783203125	-0.35536654663085937	0		5.78151025390625	0.17410154724121094	0		-0.285102294921875	5.89623486328125	0		
-0.028181114196777345	0.002789763927459717	0		0.5422606811523437	-2.483419921875	0		-0.9883668823242188	-0.006392526149749756	0		-0.5515057983398437	-2.53896142578125	0		1.9851353759765624	-1.040070068359375	0		3.429223388671875	-0.716820068359375	0		4.66893017578125	-0.342050537109375	0		5.772572265625	0.2054502410888672	0		-0.27153729248046876	5.906232421875	0		
0.0020473299026489257	-0.0024498589038848876	0		0.586536865234375	-2.47785302734375	0		-0.9100559692382812	-0.005191568851470947	0		-0.5502776489257812	-2.536825439453125	0		1.9737872314453124	-1.007864501953125	0		3.43547802734375	-0.7178847045898438	0		4.6682109375	-0.342072265625	0		5.77206396484375	0.20534657287597657	0		-0.32023202514648436	5.89097705078125	0		
-0.029546642303466798	0.0030549099445343017	0		0.5618497314453125	-2.472456787109375	0		-0.9856962280273438	-0.0031076009273529053	0		-0.55103076171875	-2.536683349609375	0		1.9663642578125	-0.9857319946289063	0		3.43316455078125	-0.6878694458007812	0		4.64373974609375	-0.32582965087890625	0		5.77159033203125	0.20518373107910157	0		-0.2865980224609375	5.89668896484375	0		
0.04380129241943359	-0.0017620790004730224	0		0.5871160888671875	-2.475701171875	0		-0.923173828125	0.006248689174652099	0		-0.542864990234375	-2.547671875	0		1.958989990234375	-0.9646236572265625	0		3.41755419921875	-0.686718017578125	0		4.65411669921875	-0.327048828125	0		5.77477978515625	0.21523640441894532	0		-0.23975459289550782	5.9132158203125	0		
-0.025728612899780273	-0.0018246959447860717	0		0.5355955200195313	-2.467010986328125	0		-0.9946409301757813	0.011250229835510253	0		-0.5325926513671875	-2.555706787109375	0		1.9577891845703126	-0.9356144409179687	0		3.406290771484375	-0.6636434936523438	0		4.6315947265625	-0.3258861694335938	0		5.771443359375	0.19429283142089843	0		-0.27309475708007813	5.908716796875	0		
0.05081534957885742	-0.003728795051574707	0		0.56710205078125	-2.463376220703125	0		-0.9910281982421875	0.015299146652221679	0		-0.5670722045898438	-2.5502021484375	0		1.917690673828125	-0.9051412963867187	0		3.4336982421875	-0.6740783081054688	0		4.6272939453125	-0.3139739990234375	0		5.77841064453125	0.22316552734375	0		-0.256197998046875	5.91557275390625	0		
-0.023459869384765623	0.0022327849864959715	0		0.5348569946289062	-2.446964599609375	0		-0.9841709594726562	0.031287946701049806	0		-0.5356145629882813	-2.557543212890625	0		1.94954443359375	-0.8865900268554687	0		3.40491796875	-0.6268284301757813	0		4.61005126953125	-0.30492242431640626	0		5.7781611328125	0.22280308532714843	0		-0.2582648620605469	5.91764404296875	0		
0.05022700881958008	-0.003682929992675781	0		0.58337841796875	-2.4575888671875	0		-0.9903505859375	0.036419490814208984	0		-0.554966552734375	-2.557266845703125	0		1.933578125	-0.8614593505859375	0		3.381560546875	-0.6336691284179687	0		4.60490771484375	-0.29604238891601564	0		5.770146484375	0.224371826171875	0		-0.25924420166015627	5.91868212890625	0		
-0.03183388328552246	0.0033439760208129883	0		0.549310546875	-2.443191650390625	0		-0.9805055541992187	0.03532909393310547	0		-0.56130615234375	-2.564173095703125	0		1.924614013671875	-0.844435302734375	0		3.376580322265625	-0.6187569580078125	0		4.58276611328125	-0.29496630859375	0		5.77004052734375	0.22393821716308593	0		-0.2402006530761719	5.913447265625	0		
0.047003498077392576	-0.006681161880493164	0		0.560075927734375	-2.450379638671875	0		-0.9714584350585938	0.04222964477539062	0		-0.6034909057617187	-2.56664306640625	0		1.8918428955078126	-0.8201259765625	0		3.4035224609375	-0.6182671508789063	0		4.57661083984375	-0.3031082763671875	0		5.78756494140625	0.1710306701660156	0		-0.23999449157714844	5.91343115234375	0		
-0.026884546279907228	-0.001787276029586792	0		0.538133056640625	-2.44216845703125	0		-0.9692361450195313	0.055198802947998046	0		-0.5696084594726563	-2.5720947265625	0		1.897130859375	-0.7993145141601562	0		3.375152099609375	-0.5710882568359374	0		4.56609912109375	-0.2682060241699219	0		5.7912470703125	0.18599671936035156	0		-0.25960287475585936	5.920650390625	0		
0.04530850219726563	0.0012334519624710083	0		0.5562811889648438	-2.434482421875	0		-1.031927734375	0.06797962188720703	0		-0.5824886474609375	-2.565967529296875	0		1.871719970703125	-0.7621255493164063	0		3.374174560546875	-0.5792752685546875	0		4.566236328125	-0.26845541381835936	0		5.787150390625	0.20117962646484375	0		-0.2592115173339844	5.92059912109375	0		
